<svg width="247" height="32" viewBox="0 0 247 32" fill="none" xmlns="http://www.w3.org/2000/svg">
<path d="M0.901016 30V2.032H9.26102C12.073 2.032 14.467 2.45 16.443 3.286C18.419 4.122 20.0023 5.23667 21.193 6.63C22.409 8.02333 23.2957 9.58133 23.853 11.304C24.4104 13.0267 24.689 14.762 24.689 16.51C24.689 18.5873 24.309 20.462 23.549 22.134C22.8144 23.7807 21.801 25.1993 20.509 26.39C19.217 27.5553 17.7223 28.4547 16.025 29.088C14.3277 29.696 12.529 30 10.629 30H0.901016ZM6.41102 24.68H9.67902C11.0723 24.68 12.339 24.5027 13.479 24.148C14.619 23.768 15.5943 23.2233 16.405 22.514C17.241 21.8047 17.8743 20.918 18.305 19.854C18.761 18.7647 18.989 17.5233 18.989 16.13C18.989 14.306 18.685 12.824 18.077 11.684C17.4944 10.5187 16.7597 9.61933 15.873 8.986C15.0117 8.35267 14.125 7.922 13.213 7.694C12.301 7.44067 11.5283 7.314 10.895 7.314H6.41102V24.68ZM25.1337 30L37.7497 0.929998H38.0537L50.6697 30H44.2857L36.2297 9.556L40.2197 6.82L30.5677 30H25.1337ZM33.7597 19.892H42.1577L44.0957 24.528H32.0497L33.7597 19.892ZM63.2207 2.032C64.9687 2.032 66.5267 2.26 67.8947 2.716C69.2627 3.14667 70.4027 3.78 71.3147 4.616C72.2521 5.42667 72.9614 6.41467 73.4427 7.58C73.9241 8.72 74.1647 10.012 74.1647 11.456C74.1647 12.596 73.9874 13.736 73.6327 14.876C73.3034 16.016 72.7461 17.0547 71.9607 17.992C71.2007 18.9293 70.1874 19.6893 68.9207 20.272C67.6541 20.8293 66.0834 21.108 64.2087 21.108H60.2567V30H54.7467V2.032H63.2207ZM64.1707 15.788C65.0067 15.788 65.7034 15.6487 66.2607 15.37C66.8181 15.0913 67.2487 14.7367 67.5527 14.306C67.8821 13.8753 68.1101 13.432 68.2367 12.976C68.3887 12.4947 68.4647 12.0513 68.4647 11.646C68.4647 11.342 68.4141 10.962 68.3127 10.506C68.2367 10.0247 68.0594 9.54333 67.7807 9.062C67.5021 8.58067 67.0714 8.17533 66.4887 7.846C65.9314 7.51667 65.1714 7.352 64.2087 7.352H60.2567V15.788H64.1707ZM69.3387 19.208L76.2547 30H69.8327L62.7647 19.36L69.3387 19.208ZM80.7975 2.032H86.3075V30H80.7975V2.032ZM91.816 16.054C91.816 14.1287 92.1833 12.3047 92.918 10.582C93.6527 8.85933 94.666 7.33933 95.958 6.022C97.2753 4.67933 98.7953 3.628 100.518 2.868C102.241 2.108 104.09 1.728 106.066 1.728C108.017 1.728 109.853 2.108 111.576 2.868C113.299 3.628 114.819 4.67933 116.136 6.022C117.479 7.33933 118.517 8.85933 119.252 10.582C120.012 12.3047 120.392 14.1287 120.392 16.054C120.392 18.03 120.012 19.8793 119.252 21.602C118.517 23.3247 117.479 24.8447 116.136 26.162C114.819 27.454 113.299 28.4673 111.576 29.202C109.853 29.9367 108.017 30.304 106.066 30.304C104.09 30.304 102.241 29.9367 100.518 29.202C98.7953 28.4673 97.2753 27.454 95.958 26.162C94.666 24.8447 93.6527 23.3247 92.918 21.602C92.1833 19.8793 91.816 18.03 91.816 16.054ZM97.516 16.054C97.516 17.2953 97.7313 18.4607 98.162 19.55C98.618 20.614 99.2387 21.564 100.024 22.4C100.835 23.2107 101.759 23.844 102.798 24.3C103.862 24.756 105.015 24.984 106.256 24.984C107.447 24.984 108.549 24.756 109.562 24.3C110.601 23.844 111.5 23.2107 112.26 22.4C113.02 21.564 113.615 20.614 114.046 19.55C114.477 18.4607 114.692 17.2953 114.692 16.054C114.692 14.7873 114.464 13.6093 114.008 12.52C113.577 11.4307 112.969 10.4807 112.184 9.67C111.424 8.834 110.525 8.188 109.486 7.732C108.447 7.276 107.32 7.048 106.104 7.048C104.888 7.048 103.761 7.276 102.722 7.732C101.683 8.188 100.771 8.834 99.986 9.67C99.2007 10.4807 98.5927 11.4307 98.162 12.52C97.7313 13.6093 97.516 14.7873 97.516 16.054ZM153.177 8.796C152.113 8.21333 151.023 7.732 149.909 7.352C148.819 6.972 147.793 6.782 146.831 6.782C145.64 6.782 144.703 7.02267 144.019 7.504C143.335 7.98533 142.993 8.70733 142.993 9.67C142.993 10.3287 143.246 10.924 143.753 11.456C144.285 11.9627 144.956 12.4187 145.767 12.824C146.603 13.2293 147.464 13.5967 148.351 13.926C149.161 14.23 149.959 14.5973 150.745 15.028C151.555 15.4333 152.277 15.9527 152.911 16.586C153.544 17.194 154.051 17.9667 154.431 18.904C154.811 19.816 155.001 20.9433 155.001 22.286C155.001 23.7047 154.633 25.022 153.899 26.238C153.164 27.454 152.087 28.442 150.669 29.202C149.25 29.9367 147.502 30.304 145.425 30.304C144.361 30.304 143.271 30.2027 142.157 30C141.067 29.772 139.991 29.4427 138.927 29.012C137.863 28.556 136.837 27.986 135.849 27.302L138.281 23.008C138.939 23.4893 139.649 23.92 140.409 24.3C141.194 24.6547 141.979 24.9333 142.765 25.136C143.55 25.3387 144.272 25.44 144.931 25.44C145.589 25.44 146.248 25.3513 146.907 25.174C147.591 24.9713 148.148 24.642 148.579 24.186C149.035 23.73 149.263 23.0967 149.263 22.286C149.263 21.7287 149.073 21.222 148.693 20.766C148.338 20.31 147.844 19.892 147.211 19.512C146.603 19.132 145.931 18.8027 145.197 18.524C144.335 18.1947 143.449 17.8147 142.537 17.384C141.625 16.9533 140.763 16.434 139.953 15.826C139.167 15.1927 138.521 14.42 138.015 13.508C137.533 12.5707 137.293 11.4307 137.293 10.088C137.293 8.46667 137.647 7.06067 138.357 5.87C139.091 4.67933 140.117 3.742 141.435 3.058C142.752 2.34866 144.272 1.956 145.995 1.88C148.249 1.88 150.073 2.146 151.467 2.678C152.885 3.21 154.152 3.84333 155.267 4.578L153.177 8.796ZM168.871 2.032C171.176 2.032 173.127 2.42466 174.723 3.21C176.319 3.97 177.535 5.05933 178.371 6.478C179.207 7.87133 179.625 9.53067 179.625 11.456C179.625 12.596 179.448 13.7487 179.093 14.914C178.764 16.054 178.219 17.0927 177.459 18.03C176.724 18.9673 175.724 19.7273 174.457 20.31C173.216 20.8673 171.683 21.146 169.859 21.146H165.907V30H160.397V2.032H168.871ZM169.821 15.788C170.657 15.788 171.354 15.6487 171.911 15.37C172.468 15.066 172.899 14.6987 173.203 14.268C173.532 13.812 173.76 13.3433 173.887 12.862C174.039 12.3807 174.115 11.9627 174.115 11.608C174.115 11.3293 174.064 10.962 173.963 10.506C173.887 10.0247 173.71 9.54333 173.431 9.062C173.152 8.58067 172.722 8.17533 172.139 7.846C171.582 7.51667 170.822 7.352 169.859 7.352H165.907V15.788H169.821ZM178.581 30L191.197 0.929998H191.501L204.117 30H197.733L189.677 9.556L193.667 6.82L184.015 30H178.581ZM187.207 19.892H195.605L197.543 24.528H185.497L187.207 19.892ZM208.194 2.032H213.704V30H208.194V2.032ZM245.965 31.14L224.761 11.988L226.395 12.9L226.509 30H220.923V0.929998H221.151L241.899 20.006L240.683 19.474L240.569 2.032H246.117V31.14H245.965Z" fill="#F8F8F8"/>
</svg>
