<svg width="150" height="112" viewBox="0 0 150 112" fill="none" xmlns="http://www.w3.org/2000/svg">
<g clip-path="url(#clip0_582_13293)">
<path d="M0 0H150V112H0V0Z" fill="#012169"/>
<path d="M17.5781 0L74.7656 42.2333L131.719 0H150V14.4667L93.75 56.2333L150 97.7667V112H131.25L75 70.2333L18.9844 112H0V98L56.0156 56.4667L0 14.9333V0H17.5781Z" fill="white"/>
<path d="M99.375 65.5667L150 102.667V112L86.4844 65.5667H99.375ZM56.25 70.2333L57.6562 78.4L12.6562 112H0L56.25 70.2333ZM150 0V0.7L91.6406 44.5667L92.1094 34.3L138.281 0H150ZM0 0L56.0156 41.0667H41.9531L0 9.8V0Z" fill="#C8102E"/>
<path d="M56.4844 0V112H93.9844V0H56.4844ZM0 37.3333V74.6667H150V37.3333H0Z" fill="white"/>
<path d="M56.4844 0V112H93.9844V0H56.4844ZM0 37.3333V74.6667H150V37.3333H0Z" fill="white"/>
<path d="M0 45.0333V67.4333H150V45.0333H0ZM63.9844 0V112H86.4844V0H63.9844Z" fill="#C8102E"/>
<path d="M0 45.0333V67.4333H150V45.0333H0ZM63.9844 0V112H86.4844V0H63.9844Z" fill="#C8102E"/>
</g>
<defs>
<clipPath id="clip0_582_13293">
<rect width="150" height="112" fill="white"/>
</clipPath>
</defs>
</svg>
